HIERARCHY
ROOT Hips
{
	OFFSET 0.000000 0.000000 0.000000
	CHANNELS 6 Xposition Yposition Zposition Yrotation Xrotation Zrotation
	JOINT Chest
	{
		OFFSET 0.000000 -0.009281 11.569106
		CHANNELS 3 Yrotation Xrotation Zrotation
		JOINT Chest2
		{
			OFFSET -0.000000 0.016865 9.269641
			CHANNELS 3 Yrotation Xrotation Zrotation
			JOINT Chest3
			{
				OFFSET -0.000000 0.000001 8.374491
				CHANNELS 3 Yrotation Xrotation Zrotation
				JOINT Chest4
				{
					OFFSET -0.000000 0.000001 8.374493
					CHANNELS 3 Yrotation Xrotation Zrotation
					JOINT Neck
					{
						OFFSET -0.000000 0.000002 12.152554
						CHANNELS 3 Yrotation Xrotation Zrotation
						JOINT Head
						{
							OFFSET -0.000000 0.040101 7.802319
							CHANNELS 3 Yrotation Xrotation Zrotation
							End Site
							{
								OFFSET -0.000000 0.020947 14.853096
							}
						}
					}
					JOINT RightCollar
					{
						OFFSET 2.894404 0.000001 6.791374
						CHANNELS 3 Yrotation Xrotation Zrotation
						JOINT RightShoulder
						{
							OFFSET 13.574684 0.000001 0.000000
							CHANNELS 3 Yrotation Xrotation Zrotation
							JOINT RightElbow
							{
								OFFSET 23.923903 0.000002 0.000000
								CHANNELS 3 Yrotation Xrotation Zrotation
								JOINT RightWrist
								{
									OFFSET 19.846718 0.012767 0.000000
									CHANNELS 3 Yrotation Xrotation Zrotation
									End Site
									{
										OFFSET 14.973145 0.000001 0.000000
									}
								}
							}
						}
					}
					JOINT LeftCollar
					{
						OFFSET -2.894404 0.000001 6.791374
						CHANNELS 3 Yrotation Xrotation Zrotation
						JOINT LeftShoulder
						{
							OFFSET -13.574684 -0.000001 0.000000
							CHANNELS 3 Yrotation Xrotation Zrotation
							JOINT LeftElbow
							{
								OFFSET -23.923903 -0.000002 0.000000
								CHANNELS 3 Yrotation Xrotation Zrotation
								JOINT LeftWrist
								{
									OFFSET -19.846718 0.012763 0.000000
									CHANNELS 3 Yrotation Xrotation Zrotation
									End Site
									{
										OFFSET -14.973145 -0.000001 0.000000
									}
								}
							}
						}
					}
				}
			}
		}
	}
	JOINT RightHip
	{
		OFFSET 9.469263 0.004643 0.045487
		CHANNELS 3 Yrotation Xrotation Zrotation
		JOINT RightKnee
		{
			OFFSET 0.000000 0.002661 -40.478676
			CHANNELS 3 Yrotation Xrotation Zrotation
			JOINT RightAnkle
			{
				OFFSET 0.000000 0.049106 -35.224068
				CHANNELS 3 Yrotation Xrotation Zrotation
				JOINT RightToe
				{
					OFFSET -0.000001 12.539529 -6.151390
					CHANNELS 3 Yrotation Xrotation Zrotation
					End Site
					{
						OFFSET -0.000001 5.044994 -1.291870
					}
				}
			}
		}
	}
	JOINT LeftHip
	{
		OFFSET -9.469263 0.004641 0.045487
		CHANNELS 3 Yrotation Xrotation Zrotation
		JOINT LeftKnee
		{
			OFFSET 0.000000 0.002661 -40.478676
			CHANNELS 3 Yrotation Xrotation Zrotation
			JOINT LeftAnkle
			{
				OFFSET 0.000000 0.049106 -35.224068
				CHANNELS 3 Yrotation Xrotation Zrotation
				JOINT LeftToe
				{
					OFFSET -0.000001 12.539529 -6.151390
					CHANNELS 3 Yrotation Xrotation Zrotation
					End Site
					{
						OFFSET -0.000001 5.044994 -1.291870
					}
				}
			}
		}
	}
}
MOTION
Frames: 8
Frame Time: 0.016667
10.016779 5.232446 83.016495 -5.886718 -2.141572 -107.575616 8.785790 -0.871457 -4.406161 3.901212 -0.468488 -1.932663 3.901212 -0.468488 -1.932663 2.924446 -0.363726 -1.446567 -6.122098 -16.819394 17.202211 -5.423190 4.579276 29.700623 7.042156 6.083968 -6.033179 69.785839 34.256308 19.686764 57.752405 35.956848 73.532922 7.014257 37.038309 21.986384 -7.095707 0.885617 -10.539396 -72.757374 42.807456 -64.560130 -45.966914 37.667124 -60.522818 48.286104 49.498456 6.076068 -1.914525 -9.466056 2.611232 -0.431063 -1.955411 0.251456 1.967826 4.935185 -2.138773 -0.045923 -0.012377 0.010320 -2.758378 -10.073020 1.420873 0.254671 -0.143365 3.140320 1.061856 3.785652 0.502920 -0.035228 -0.064494 -0.012835 
9.975853 5.255817 83.019081 -5.856492 -2.145246 -107.554299 8.771834 -0.874321 -4.411409 3.895857 -0.469479 -1.935938 3.895858 -0.469478 -1.935934 2.920427 -0.364472 -1.449020 -6.092755 -16.786776 17.197095 -5.365199 4.633883 29.704267 7.013123 6.067462 -6.037808 70.000457 34.234346 19.889627 58.235183 35.793545 74.125181 8.780731 37.172482 23.091785 -7.095124 0.908685 -10.553005 -72.768111 42.782058 -64.595490 -46.046543 37.683431 -60.623741 47.864466 49.377650 5.774946 -1.906288 -9.386739 2.643451 -0.428846 -1.996097 0.218400 1.983008 4.914263 -2.152193 -0.040839 -0.005199 0.010065 -2.739731 -10.002935 1.449291 0.236663 -0.159342 3.112024 1.077149 3.772963 0.473675 -0.027824 -0.065800 -0.012717 
9.937609 5.281691 83.022255 -5.822484 -2.149018 -107.524540 8.753290 -0.872999 -4.416437 3.888037 -0.468668 -1.939540 3.888037 -0.468668 -1.939537 2.914559 -0.363863 -1.451734 -6.057331 -16.755381 17.188151 -5.297555 4.685493 29.702898 6.987653 6.065637 -6.050111 70.202078 34.242054 20.148570 58.712921 35.756143 74.709695 10.195903 37.371920 24.040287 -7.083426 0.921320 -10.570879 -72.798226 42.771591 -64.652440 -46.114688 37.670245 -60.688410 47.393583 49.345251 5.440974 -1.893736 -9.304375 2.681087 -0.433264 -2.041030 0.183044 2.000755 4.893384 -2.180999 -0.035062 0.004791 0.010295 -2.720066 -9.929470 1.487064 0.217250 -0.176102 3.080723 1.089425 3.761188 0.434069 -0.017760 -0.066845 -0.012355 
9.901293 5.308153 83.025673 -5.786667 -2.156535 -107.492247 8.730199 -0.861932 -4.423825 3.878522 -0.463636 -1.944541 3.878519 -0.463637 -1.944540 2.907433 -0.360090 -1.455525 -6.014601 -16.733298 17.174999 -5.219642 4.719116 29.695525 6.961716 6.077802 -6.056458 70.373310 34.324644 20.435026 59.004454 35.814292 75.085082 11.091396 37.573386 24.883052 -7.067122 0.913962 -10.583523 -72.775222 42.757339 -64.679228 -46.199857 37.672861 -60.768576 46.951588 49.373306 5.132291 -1.878417 -9.217972 2.716393 -0.436759 -2.095562 0.146830 2.017029 4.875272 -2.204411 -0.028276 0.016058 0.010392 -2.697696 -9.860663 1.538285 0.201334 -0.184449 3.029669 1.095655 3.746684 0.394980 -0.005860 -0.068585 -0.011469 
9.865223 5.332510 83.028854 -5.748819 -2.164109 -107.461832 8.706744 -0.842827 -4.429533 3.868373 -0.455137 -1.949165 3.868373 -0.455138 -1.949167 2.899848 -0.353712 -1.459059 -5.972902 -16.720894 17.158007 -5.146656 4.735634 29.679856 6.927651 6.090225 -6.063120 70.497033 34.465900 20.711756 59.072032 35.937232 75.231686 11.466213 37.908902 25.610278 -7.059467 0.908937 -10.584547 -72.706093 42.732296 -64.679098 -46.268156 37.673459 -60.831365 46.521737 49.412433 4.837768 -1.866558 -9.129530 2.746398 -0.431501 -2.149396 0.117853 2.025943 4.857663 -2.209036 -0.021172 0.024765 0.010625 -2.670852 -9.788099 1.602178 0.178954 -0.198208 2.964546 1.102390 3.737454 0.364428 0.005359 -0.071701 -0.009813 
9.830464 5.355798 83.031616 -5.713957 -2.174024 -107.441287 8.682482 -0.821684 -4.431786 3.857979 -0.445511 -1.952179 3.857977 -0.445511 -1.952180 2.892082 -0.346480 -1.461383 -5.937666 -16.713869 17.137313 -5.087650 4.743974 29.654605 6.894475 6.058367 -6.062831 70.572663 34.626894 20.984972 59.075413 36.154326 75.249383 11.633445 38.329454 26.162587 -7.050441 0.888027 -10.583661 -72.639759 42.718616 -64.687670 -46.322811 37.661947 -60.869970 46.059992 49.449149 4.465203 -1.851802 -9.046208 2.772055 -0.426256 -2.201152 0.092377 2.031459 4.839977 -2.227996 -0.014982 0.031569 0.010624 -2.645307 -9.719792 1.659202 0.159971 -0.215342 2.914280 1.106496 3.732527 0.337731 0.014393 -0.074719 -0.008675 
9.796474 5.375161 83.034348 -5.681835 -2.184905 -107.428719 8.657251 -0.802358 -4.430409 3.847013 -0.436694 -1.952962 3.847015 -0.436695 -1.952962 2.883888 -0.339833 -1.462034 -5.912347 -16.708234 17.112697 -5.048262 4.752137 29.618487 6.870123 6.027920 -6.069572 70.582915 34.770874 21.222851 59.133831 36.458788 75.192193 11.670455 38.680529 26.570551 -7.034149 0.868507 -10.582735 -72.592671 42.710952 -64.702628 -46.353994 37.627403 -60.882442 45.667362 49.544328 4.112124 -1.835009 -8.967761 2.787829 -0.426671 -2.248557 0.073362 2.038394 4.820689 -2.233467 -0.009011 0.036374 0.011376 -2.622139 -9.654750 1.689049 0.146615 -0.235389 2.886326 1.109343 3.729421 0.323157 0.019436 -0.076639 -0.008395 
9.762307 5.391353 83.037178 -5.656487 -2.197838 -107.429122 8.629224 -0.788218 -4.424724 3.834933 -0.430287 -1.951277 3.834934 -0.430287 -1.951276 2.874847 -0.334978 -1.460819 -5.894805 -16.705698 17.085991 -5.024320 4.756343 29.575484 6.849234 6.009681 -6.092816 70.578872 34.921067 21.440657 59.104099 36.804666 74.995969 11.532843 39.091649 26.912994 -7.016793 0.852770 -10.591475 -72.542100 42.717280 -64.717238 -46.376605 37.600540 -60.896963 45.368288 49.602770 3.817275 -1.816785 -8.896350 2.802379 -0.428744 -2.293697 0.060531 2.044428 4.800318 -2.227809 -0.004941 0.039369 0.011949 -2.599598 -9.597577 1.700294 0.134468 -0.257036 2.876078 1.114514 3.726884 0.321383 0.019759 -0.077093 -0.008562 
